<svg width="29" height="25" viewBox="0 0 29 25" fill="none" xmlns="http://www.w3.org/2000/svg">
<path d="M28.1107 0.27352C27.9558 0.139731 27.7673 0.0507517 27.5655 0.0161696C27.3637 -0.0184126 27.1564 0.00271312 26.9657 0.0772705L1.63321 9.99102C1.27419 10.1306 0.970242 10.3831 0.767118 10.7104C0.563994 11.0377 0.472692 11.4221 0.506956 11.8058C0.541221 12.1895 0.699198 12.5516 0.957105 12.8378C1.21501 13.1239 1.55889 13.3185 1.93696 13.3923L8.50071 14.681V21.9998C8.49942 22.3984 8.61789 22.7883 8.84076 23.1188C9.06364 23.4493 9.38065 23.7053 9.75071 23.8535C10.1202 24.0044 10.5265 24.0406 10.9169 23.9575C11.3072 23.8743 11.6635 23.6756 11.9395 23.3873L15.1045 20.1048L20.1257 24.4998C20.488 24.8211 20.9552 24.9989 21.4395 24.9998C21.6517 24.9996 21.8625 24.9663 22.0645 24.901C22.3944 24.7963 22.6911 24.607 22.9252 24.352C23.1592 24.0969 23.3223 23.785 23.3982 23.4473L28.472 1.37477C28.5173 1.17571 28.5077 0.968046 28.4441 0.774046C28.3804 0.580046 28.2652 0.407022 28.1107 0.27352ZM20.4682 4.77352L9.26946 12.7935L3.06946 11.5773L20.4682 4.77352ZM10.5007 21.9998V16.0648L13.5995 18.7823L10.5007 21.9998ZM21.442 22.9998L11.107 13.9373L25.982 3.27602L21.442 22.9998Z" fill="white"/>
</svg>
