<svg width="72" height="71" viewBox="0 0 72 71" fill="none" xmlns="http://www.w3.org/2000/svg">
<path d="M36.1086 69.3113V22.239M36.1086 69.3113C27.1912 69.3113 18.639 65.769 12.3335 59.4634C6.0279 53.1579 2.48547 44.6057 2.48547 35.6883H12.5724M36.1086 69.3113C45.026 69.3113 53.5782 65.769 59.8837 59.4634C66.1893 53.1579 69.7317 44.6057 69.7317 35.6883H59.6448M36.1086 22.239C41.6795 22.239 46.1955 17.723 46.1955 12.1521C46.1955 6.58126 41.6795 2.06519 36.1086 2.06519C30.5378 2.06519 26.0217 6.58126 26.0217 12.1521C26.0217 17.723 30.5377 22.239 36.1086 22.239Z" stroke="black" stroke-width="3" stroke-linecap="round" stroke-linejoin="round"/>
</svg>
