<svg width="96" height="66" viewBox="0 0 96 66" fill="none" xmlns="http://www.w3.org/2000/svg">
<path d="M95.5178 22.8441L85.7271 3.32049C85.4569 2.78078 85.0829 2.29949 84.6264 1.90408C84.1699 1.50868 83.6398 1.20691 83.0665 1.01601C82.4931 0.825118 81.8877 0.748833 81.2848 0.791515C80.6819 0.834196 80.0934 0.995008 79.5527 1.26477L69.4974 6.26434L48.8345 0.813046C48.5831 0.746846 48.3189 0.746846 48.0675 0.813046L27.4046 6.26434L17.3492 1.24563C16.8086 0.975868 16.2201 0.815056 15.6172 0.772374C15.0143 0.729693 14.4089 0.805977 13.8355 0.996873C13.2622 1.18777 12.7321 1.48953 12.2756 1.88494C11.8191 2.28034 11.4451 2.76164 11.1749 3.30135L1.38419 22.8441C1.11395 23.3837 0.952848 23.9713 0.91009 24.5731C0.867332 25.1749 0.943754 25.7792 1.13499 26.3515C1.32623 26.9239 1.62853 27.453 2.02464 27.9087C2.42075 28.3644 2.90291 28.7377 3.44358 29.0074L13.9093 34.2328L35.2893 49.4765C35.4449 49.5883 35.6207 49.6689 35.807 49.7139L60.351 55.8389C60.6063 55.9057 60.8746 55.9055 61.1299 55.8385C61.3852 55.7714 61.6189 55.6397 61.8082 55.4561L83.1078 34.1945L93.4622 29.0265C94.0029 28.7569 94.4851 28.3835 94.8812 27.9278C95.2773 27.4721 95.5796 26.943 95.7708 26.3707C95.9621 25.7983 96.0385 25.194 95.9957 24.5922C95.953 23.9904 95.7919 23.4029 95.5216 22.8632L95.5178 22.8441ZM75.9594 36.9891L61.6932 25.5812C61.3978 25.3447 61.0253 25.2255 60.6472 25.2467C60.2691 25.2679 59.9123 25.428 59.6453 25.696C52.1709 33.2145 43.7915 32.246 38.4417 28.8351C38.2447 28.709 38.0787 28.5403 37.9559 28.3416C37.8331 28.1428 37.7567 27.919 37.7322 27.6867C37.706 27.4631 37.7307 27.2365 37.8044 27.0237C37.8781 26.811 37.9989 26.6175 38.1579 26.4579L55.2082 9.94702H68.9797L80.3312 32.6135L75.9594 36.9891ZM4.04567 25.3821C3.92303 25.0029 3.9533 24.591 4.13004 24.2337L13.9361 4.67183C14.0619 4.41902 14.2553 4.20586 14.4949 4.05588C14.7345 3.90591 15.0109 3.82496 15.2937 3.82198C15.5309 3.82342 15.7646 3.87976 15.9763 3.98659L25.1803 8.58037L14.0166 30.8641L4.81267 26.2703C4.63264 26.1798 4.47224 26.0548 4.34063 25.9024C4.20902 25.75 4.10879 25.5732 4.04567 25.3821ZM60.2512 52.6577L36.8348 46.8121L16.6628 32.4298L28.2981 9.18139L48.451 3.87557L59.8486 6.8845H54.587C54.1875 6.88412 53.8036 7.03932 53.517 7.31708L35.9911 24.2873C35.5034 24.7742 35.1315 25.3643 34.903 26.014C34.6746 26.6637 34.5953 27.3563 34.6712 28.0407C34.747 28.7251 34.976 29.3837 35.3412 29.9678C35.7065 30.5519 36.1986 31.0466 36.7811 31.4153C44.4051 36.2809 53.7049 35.2435 60.8111 28.8083L73.7619 39.1673L60.2512 52.6577ZM92.8486 25.3821C92.7855 25.5732 92.6853 25.75 92.5537 25.9024C92.4221 26.0548 92.2617 26.1798 92.0816 26.2703L82.8777 30.8641L71.7217 8.58037L80.9257 3.98659C81.2878 3.81059 81.7047 3.7838 82.0864 3.91201C82.4681 4.04021 82.784 4.31313 82.9659 4.67183L92.7566 24.2146C92.9436 24.5752 92.9795 24.9951 92.8563 25.3821H92.8486ZM48.428 63.924C48.3428 64.2531 48.1504 64.5446 47.881 64.7526C47.6116 64.9605 47.2805 65.073 46.94 65.0724C46.8108 65.073 46.682 65.0575 46.5565 65.0265L30.5723 61.0337C30.385 60.988 30.2081 60.9075 30.0507 60.7964L19.9494 53.588C19.6183 53.3519 19.3947 52.9943 19.3278 52.5937C19.261 52.1931 19.3562 51.7823 19.5927 51.4519C19.8292 51.1214 20.1875 50.8982 20.5888 50.8315C20.9901 50.7647 21.4016 50.8598 21.7326 51.0959L31.5962 58.1282L47.3197 62.052C47.516 62.1016 47.7006 62.1894 47.8627 62.3105C48.0249 62.4316 48.1614 62.5835 48.2645 62.7575C48.3675 62.9316 48.435 63.1243 48.4631 63.3245C48.4911 63.5247 48.4792 63.7284 48.428 63.924Z" fill="black"/>
</svg>
