<svg width="85" height="85" viewBox="0 0 85 85" fill="none" xmlns="http://www.w3.org/2000/svg">
<path d="M67.9047 74.528L59.9184 38.1457L75.4474 22.6166C82.1027 15.9614 84.3211 7.08762 82.1027 2.65076C77.6658 0.432328 68.7921 2.65076 62.1368 9.30606L46.6078 24.8351L10.2255 16.8487C8.00706 16.405 6.23231 17.2924 5.34494 19.0672L4.01388 21.2856C3.12651 23.504 3.5702 25.7225 5.34494 27.0535L28.8603 42.5825L19.9866 55.8931H6.676L2.23914 60.33L15.5497 69.2037L24.4235 82.5143L28.8603 78.0775V64.7669L42.1709 55.8931L57.6999 79.4085C59.031 81.1833 61.2494 81.6269 63.4679 80.7396L65.6863 79.8522C67.461 78.5211 68.3484 76.7464 67.9047 74.528Z" stroke="black" stroke-width="3" stroke-linecap="round" stroke-linejoin="round"/>
</svg>
