<svg width="80" height="65" viewBox="0 0 80 65" fill="none" xmlns="http://www.w3.org/2000/svg">
<path d="M47.4008 55.0183V9.57405C47.4008 7.56529 46.6028 5.6388 45.1824 4.21839C43.762 2.79798 41.8355 2 39.8268 2H9.53058C7.52181 2 5.59532 2.79798 4.17492 4.21839C2.75451 5.6388 1.95653 7.56529 1.95653 9.57405V51.2313C1.95653 52.2357 2.35552 53.1989 3.06572 53.9092C3.77593 54.6194 4.73917 55.0183 5.74355 55.0183H13.3176M13.3176 55.0183C13.3176 59.2014 16.7086 62.5924 20.8917 62.5924C25.0747 62.5924 28.4657 59.2014 28.4657 55.0184M13.3176 55.0183C13.3176 50.8353 16.7086 47.4443 20.8917 47.4443C25.0747 47.4443 28.4657 50.8353 28.4657 55.0184M51.1879 55.0184H28.4657M51.1879 55.0184C51.1879 59.2014 54.5789 62.5924 58.7619 62.5924C62.9449 62.5924 66.336 59.2013 66.336 55.0183M51.1879 55.0184C51.1879 50.8353 54.5789 47.4443 58.7619 47.4443C62.9449 47.4443 66.336 50.8352 66.336 55.0183M66.336 55.0183H73.91C74.9144 55.0183 75.8777 54.6193 76.5879 53.9091C77.2981 53.1989 77.6971 52.2356 77.6971 51.2312V37.4086C77.6955 36.5492 77.4017 35.7158 76.8639 35.0455L63.6851 18.5719C63.3309 18.1284 62.8815 17.7702 62.3702 17.5237C61.859 17.2772 61.2988 17.1488 60.7312 17.148H47.4009" stroke="black" stroke-width="3" stroke-linecap="round" stroke-linejoin="round"/>
</svg>
