<svg width="55" height="64" viewBox="0 0 55 64" fill="none" xmlns="http://www.w3.org/2000/svg">
<path d="M42.8607 10.1902H12.2901C11.9522 10.1902 11.6283 10.3244 11.3894 10.5633C11.1505 10.8022 11.0163 11.1262 11.0163 11.464V26.7493C11.0163 27.0871 11.1505 27.4111 11.3894 27.65C11.6283 27.8889 11.9522 28.0231 12.2901 28.0231H42.8607C43.1986 28.0231 43.5225 27.8889 43.7614 27.65C44.0003 27.4111 44.1345 27.0871 44.1345 26.7493V11.464C44.1345 11.1262 44.0003 10.8022 43.7614 10.5633C43.5225 10.3244 43.1986 10.1902 42.8607 10.1902ZM41.587 25.4755H13.5639V12.7378H41.587V25.4755ZM50.5034 0H4.64741C3.63393 0 2.66196 0.402604 1.94532 1.11924C1.22868 1.83588 0.82608 2.80785 0.82608 3.82133V59.8675C0.82608 60.881 1.22868 61.853 1.94532 62.5696C2.66196 63.2862 3.63393 63.6889 4.64741 63.6889H50.5034C51.5169 63.6889 52.4888 63.2862 53.2055 62.5696C53.9221 61.853 54.3247 60.881 54.3247 59.8675V3.82133C54.3247 2.80785 53.9221 1.83588 53.2055 1.11924C52.4888 0.402604 51.5169 0 50.5034 0ZM51.7772 59.8675C51.7772 60.2054 51.643 60.5293 51.4041 60.7682C51.1652 61.0071 50.8412 61.1413 50.5034 61.1413H4.64741C4.30959 61.1413 3.9856 61.0071 3.74672 60.7682C3.50784 60.5293 3.37363 60.2054 3.37363 59.8675V3.82133C3.37363 3.4835 3.50784 3.15951 3.74672 2.92064C3.9856 2.68176 4.30959 2.54755 4.64741 2.54755H50.5034C50.8412 2.54755 51.1652 2.68176 51.4041 2.92064C51.643 3.15951 51.7772 3.4835 51.7772 3.82133V59.8675ZM17.3852 38.2133C17.3852 38.7172 17.2358 39.2097 16.9558 39.6287C16.6759 40.0476 16.278 40.3741 15.8125 40.5669C15.347 40.7598 14.8348 40.8102 14.3406 40.7119C13.8464 40.6136 13.3925 40.371 13.0362 40.0147C12.68 39.6584 12.4373 39.2045 12.339 38.7103C12.2407 38.2161 12.2912 37.7039 12.484 37.2384C12.6768 36.7729 13.0033 36.375 13.4223 36.0951C13.8412 35.8152 14.3338 35.6658 14.8376 35.6658C15.5133 35.6658 16.1613 35.9342 16.639 36.4119C17.1168 36.8897 17.3852 37.5377 17.3852 38.2133ZM30.123 38.2133C30.123 38.7172 29.9735 39.2097 29.6936 39.6287C29.4137 40.0476 29.0158 40.3741 28.5503 40.5669C28.0848 40.7598 27.5726 40.8102 27.0784 40.7119C26.5842 40.6136 26.1303 40.371 25.774 40.0147C25.4177 39.6584 25.1751 39.2045 25.0768 38.7103C24.9785 38.2161 25.0289 37.7039 25.2218 37.2384C25.4146 36.7729 25.7411 36.375 26.1601 36.0951C26.579 35.8152 27.0715 35.6658 27.5754 35.6658C28.2511 35.6658 28.899 35.9342 29.3768 36.4119C29.8546 36.8897 30.123 37.5377 30.123 38.2133ZM42.8607 38.2133C42.8607 38.7172 42.7113 39.2097 42.4314 39.6287C42.1515 40.0476 41.7536 40.3741 41.2881 40.5669C40.8226 40.7598 40.3103 40.8102 39.8162 40.7119C39.322 40.6136 38.8681 40.371 38.5118 40.0147C38.1555 39.6584 37.9129 39.2045 37.8146 38.7103C37.7163 38.2161 37.7667 37.7039 37.9595 37.2384C38.1524 36.7729 38.4789 36.375 38.8978 36.0951C39.3168 35.8152 39.8093 35.6658 40.3132 35.6658C40.9888 35.6658 41.6368 35.9342 42.1146 36.4119C42.5923 36.8897 42.8607 37.5377 42.8607 38.2133ZM17.3852 50.9511C17.3852 51.4549 17.2358 51.9475 16.9558 52.3664C16.6759 52.7854 16.278 53.1119 15.8125 53.3047C15.347 53.4975 14.8348 53.548 14.3406 53.4497C13.8464 53.3514 13.3925 53.1088 13.0362 52.7525C12.68 52.3962 12.4373 51.9423 12.339 51.4481C12.2407 50.9539 12.2912 50.4417 12.484 49.9762C12.6768 49.5107 13.0033 49.1128 13.4223 48.8329C13.8412 48.5529 14.3338 48.4035 14.8376 48.4035C15.5133 48.4035 16.1613 48.6719 16.639 49.1497C17.1168 49.6274 17.3852 50.2754 17.3852 50.9511ZM30.123 50.9511C30.123 51.4549 29.9735 51.9475 29.6936 52.3664C29.4137 52.7854 29.0158 53.1119 28.5503 53.3047C28.0848 53.4975 27.5726 53.548 27.0784 53.4497C26.5842 53.3514 26.1303 53.1088 25.774 52.7525C25.4177 52.3962 25.1751 51.9423 25.0768 51.4481C24.9785 50.9539 25.0289 50.4417 25.2218 49.9762C25.4146 49.5107 25.7411 49.1128 26.1601 48.8329C26.579 48.5529 27.0715 48.4035 27.5754 48.4035C28.2511 48.4035 28.899 48.6719 29.3768 49.1497C29.8546 49.6274 30.123 50.2754 30.123 50.9511ZM42.8607 50.9511C42.8607 51.4549 42.7113 51.9475 42.4314 52.3664C42.1515 52.7854 41.7536 53.1119 41.2881 53.3047C40.8226 53.4975 40.3103 53.548 39.8162 53.4497C39.322 53.3514 38.8681 53.1088 38.5118 52.7525C38.1555 52.3962 37.9129 51.9423 37.8146 51.4481C37.7163 50.9539 37.7667 50.4417 37.9595 49.9762C38.1524 49.5107 38.4789 49.1128 38.8978 48.8329C39.3168 48.5529 39.8093 48.4035 40.3132 48.4035C40.9888 48.4035 41.6368 48.6719 42.1146 49.1497C42.5923 49.6274 42.8607 50.2754 42.8607 50.9511Z" fill="black"/>
</svg>
