<svg width="29" height="27" viewBox="0 0 29 27" fill="none" xmlns="http://www.w3.org/2000/svg">
<path d="M16.499 14.973C16.499 15.2696 16.411 15.5597 16.2462 15.8063C16.0814 16.053 15.8471 16.2453 15.573 16.3588C15.2989 16.4723 14.9973 16.502 14.7063 16.4442C14.4154 16.3863 14.1481 16.2434 13.9383 16.0336C13.7285 15.8239 13.5857 15.5566 13.5278 15.2656C13.4699 14.9746 13.4996 14.673 13.6132 14.399C13.7267 14.1249 13.919 13.8906 14.1656 13.7258C14.4123 13.5609 14.7023 13.473 14.999 13.473C15.3968 13.473 15.7783 13.631 16.0596 13.9123C16.3409 14.1936 16.499 14.5752 16.499 14.973ZM21.999 13.473C21.7023 13.473 21.4123 13.5609 21.1656 13.7258C20.919 13.8906 20.7267 14.1249 20.6132 14.399C20.4996 14.673 20.4699 14.9746 20.5278 15.2656C20.5857 15.5566 20.7285 15.8239 20.9383 16.0336C21.1481 16.2434 21.4154 16.3863 21.7063 16.4442C21.9973 16.502 22.2989 16.4723 22.573 16.3588C22.8471 16.2453 23.0814 16.053 23.2462 15.8063C23.411 15.5597 23.499 15.2696 23.499 14.973C23.499 14.5752 23.3409 14.1936 23.0596 13.9123C22.7783 13.631 22.3968 13.473 21.999 13.473ZM28.4165 23.9067C28.5181 24.2515 28.5249 24.6174 28.4361 24.9657C28.3474 25.3141 28.1664 25.6321 27.9122 25.8862C27.6581 26.1404 27.3401 26.3214 26.9917 26.4101C26.6434 26.4989 26.2775 26.4921 25.9327 26.3905L22.844 25.4817C21.6263 26.069 20.3022 26.4033 18.9517 26.4644C17.6012 26.5254 16.2523 26.3121 14.9866 25.8371C13.7209 25.3622 12.5647 24.6355 11.5877 23.7011C10.6108 22.7666 9.83347 21.6438 9.30273 20.4005C8.20927 20.2719 7.14501 19.9614 6.15398 19.4817L3.06523 20.3905C2.72041 20.4921 2.35459 20.4989 2.00624 20.4101C1.65789 20.3214 1.3399 20.1404 1.08571 19.8862C0.831525 19.6321 0.650545 19.3141 0.561812 18.9657C0.473079 18.6174 0.479873 18.2515 0.581479 17.9067L1.49023 14.818C0.920291 13.6188 0.594863 12.3181 0.532931 10.9918C0.470999 9.66556 0.673802 8.34023 1.12951 7.09315C1.58522 5.84608 2.2847 4.70224 3.18716 3.72837C4.08962 2.7545 5.17698 1.97009 6.38581 1.42091C7.59463 0.871733 8.90072 0.568777 10.2279 0.529719C11.555 0.49066 12.8767 0.716282 14.1157 1.19342C15.3547 1.67056 16.4863 2.38966 17.4445 3.30878C18.4027 4.22789 19.1682 5.32861 19.6965 6.54672C21.276 6.73706 22.7873 7.30152 24.1049 8.1932C25.4224 9.08488 26.5082 10.2781 27.2721 11.6736C28.0359 13.0692 28.4558 14.6269 28.4968 16.2173C28.5378 17.8077 28.1987 19.3849 27.5077 20.818L28.4165 23.9067ZM8.66148 18.2605C8.41415 16.9058 8.44948 15.5146 8.76527 14.1743C9.08106 12.8339 9.67049 11.5732 10.4966 10.4715C11.3226 9.36968 12.3675 8.45054 13.5656 7.77171C14.7638 7.09287 16.0893 6.66901 17.459 6.52673C16.9521 5.60641 16.2689 4.79494 15.4484 4.13866C14.6279 3.48238 13.6861 2.99413 12.6769 2.7018C10.6387 2.11141 8.44952 2.35486 6.59085 3.3786C4.73218 4.40234 3.35632 6.1225 2.76593 8.16067C2.17554 10.1988 2.41899 12.3881 3.44273 14.2467C3.56585 14.4769 3.59411 14.746 3.52148 14.9967L2.49898 18.473L5.96898 17.4517C6.21968 17.3791 6.48884 17.4074 6.71898 17.5305C7.33171 17.8578 7.9848 18.1033 8.66148 18.2605ZM25.5552 20.2467C26.4598 18.555 26.7264 16.5944 26.3063 14.7226C25.8862 12.8507 24.8074 11.1921 23.2665 10.0492C21.7257 8.90622 19.8255 8.35504 17.9122 8.4961C15.999 8.63715 14.2001 9.46105 12.8436 10.8176C11.4871 12.1741 10.6632 13.973 10.5221 15.8862C10.381 17.7995 10.9322 19.6997 12.0752 21.2405C13.2181 22.7814 14.8767 23.8602 16.7486 24.2803C18.6204 24.7004 20.581 24.4338 22.2727 23.5292C22.5029 23.4061 22.772 23.3778 23.0227 23.4505L26.499 24.473L25.4777 21.003C25.403 20.7505 25.4308 20.4788 25.5552 20.2467Z" fill="white"/>
</svg>
