<svg width="26" height="27" viewBox="0 0 26 27" fill="none" xmlns="http://www.w3.org/2000/svg">
<path d="M20.4516 15.605L16.4516 13.605C16.2941 13.5265 16.1188 13.491 15.9432 13.502C15.7676 13.5129 15.598 13.57 15.4516 13.6675L13.6153 14.8925C12.7724 14.4291 12.0787 13.7354 11.6153 12.8925L12.8403 11.0562C12.9378 10.9098 12.9949 10.7402 13.0059 10.5646C13.0168 10.3891 12.9813 10.2137 12.9028 10.0562L10.9028 6.05625C10.8199 5.88884 10.6918 5.748 10.533 5.64968C10.3741 5.55137 10.1909 5.49952 10.0041 5.5C8.67801 5.5 7.40624 6.02678 6.46855 6.96447C5.53087 7.90215 5.00409 9.17392 5.00409 10.5C5.0074 13.4164 6.16738 16.2123 8.22957 18.2745C10.2918 20.3367 13.0877 21.4967 16.0041 21.5C16.6607 21.5 17.3109 21.3707 17.9175 21.1194C18.5241 20.8681 19.0753 20.4998 19.5396 20.0355C20.0039 19.5712 20.3722 19.02 20.6235 18.4134C20.8748 17.8068 21.0041 17.1566 21.0041 16.5C21.0042 16.3142 20.9526 16.1321 20.855 15.974C20.7574 15.8159 20.6177 15.6881 20.4516 15.605ZM16.0041 19.5C13.618 19.4974 11.3303 18.5483 9.64305 16.861C7.9558 15.1738 7.00674 12.8861 7.00409 10.5C7.0039 9.8064 7.24404 9.13416 7.68367 8.59768C8.12329 8.0612 8.73523 7.69362 9.41534 7.5575L10.8503 10.4325L9.62909 12.25C9.53783 12.3869 9.48176 12.5442 9.46584 12.7079C9.44992 12.8717 9.47465 13.0368 9.53784 13.1888C10.2533 14.8892 11.6061 16.242 13.3066 16.9575C13.459 17.0235 13.6254 17.0505 13.7908 17.0361C13.9562 17.0217 14.1154 16.9663 14.2541 16.875L16.0803 15.6575L18.9553 17.0925C18.8182 17.7734 18.449 18.3856 17.9108 18.8247C17.3725 19.2637 16.6987 19.5024 16.0041 19.5ZM13.0041 0.5C10.7597 0.499511 8.55336 1.08011 6.5999 2.18529C4.64645 3.29046 3.0124 4.88256 1.8568 6.80662C0.70121 8.73069 0.0634407 10.9212 0.00557365 13.1648C-0.0522934 15.4085 0.471713 17.6289 1.52659 19.61L0.107839 23.8662C-0.00968044 24.2186 -0.0267353 24.5968 0.058586 24.9583C0.143907 25.3199 0.328233 25.6505 0.590903 25.9132C0.853573 26.1759 1.18421 26.3602 1.54575 26.4455C1.90729 26.5308 2.28545 26.5138 2.63784 26.3962L6.89409 24.9775C8.63755 25.9048 10.5694 26.4228 12.5429 26.492C14.5164 26.5613 16.4798 26.18 18.2839 25.3772C20.0881 24.5743 21.6857 23.371 22.9553 21.8586C24.225 20.3462 25.1335 18.5644 25.6117 16.6484C26.09 14.7325 26.1255 12.7328 25.7155 10.801C25.3055 8.86934 24.4609 7.05642 23.2456 5.4999C22.0304 3.94337 20.4765 2.68415 18.702 1.81782C16.9274 0.951486 14.9788 0.50081 13.0041 0.5ZM13.0041 24.5C11.0703 24.5013 9.17046 23.9921 7.49659 23.0238C7.37403 22.9527 7.23777 22.9085 7.09684 22.894C6.9559 22.8796 6.81351 22.8953 6.67909 22.94L2.00409 24.5L3.56284 19.825C3.60777 19.6907 3.62365 19.5483 3.60943 19.4074C3.59521 19.2665 3.55121 19.1301 3.48034 19.0075C2.2678 16.9111 1.78097 14.4732 2.09538 12.072C2.40978 9.67068 3.50783 7.44027 5.2192 5.72674C6.93057 4.01321 9.15958 2.91234 11.5605 2.5949C13.9613 2.27747 16.3999 2.76122 18.4978 3.97111C20.5956 5.18099 22.2356 7.04939 23.1633 9.28644C24.0909 11.5235 24.2544 14.0042 23.6284 16.3436C23.0023 18.6831 21.6217 20.7505 19.7008 22.2253C17.7798 23.7 15.4259 24.4996 13.0041 24.5Z" fill="white"/>
</svg>
